<svg version="1.1" viewBox="0.0 0.0 1280.0 720.0" fill="none" stroke="none" stroke-linecap="square" stroke-miterlimit="10" xmlns:xlink="http://www.w3.org/1999/xlink" xmlns="http://www.w3.org/2000/svg"><clipPath id="p17.0"><path d="m0 0l1280.0 0l0 720.0l-1280.0 0l0 -720.0z" clip-rule="nonzero"/></clipPath><g clip-path="url(#p17.0)"><path fill="#000000" fill-opacity="0.0" d="m0 0l1280.0 0l0 720.0l-1280.0 0z" fill-rule="evenodd"/><path fill="#2ec6d6" fill-opacity="0.8" d="m510.15958 360.0l0 0c0 -31.310638 25.382294 -56.6929 56.6929 -56.6929l0 0c15.035889 0 29.455994 5.9729614 40.08795 16.60495c10.632019 10.631989 16.60498 25.052063 16.60498 40.08795l0 0c0 31.310638 -25.382263 56.6929 -56.692932 56.6929l0 0c-31.310608 0 -56.6929 -25.382263 -56.6929 -56.6929z" fill-rule="evenodd"/><path stroke="#ffffff" stroke-width="1.0" stroke-linejoin="round" stroke-linecap="butt" d="m510.15958 360.0l0 0c0 -31.310638 25.382294 -56.6929 56.6929 -56.6929l0 0c15.035889 0 29.455994 5.9729614 40.08795 16.60495c10.632019 10.631989 16.60498 25.052063 16.60498 40.08795l0 0c0 31.310638 -25.382263 56.6929 -56.692932 56.6929l0 0c-31.310608 0 -56.6929 -25.382263 -56.6929 -56.6929z" fill-rule="evenodd"/><path fill="#ff7e15" fill-opacity="0.8" d="m709.668 149.32956l0 0c0 -31.310638 25.382263 -56.692917 56.692932 -56.692917l0 0c15.035889 0 29.455933 5.9729843 40.08795 16.604965c10.631958 10.631989 16.60492 25.052048 16.60492 40.08795l0 0c0 31.310623 -25.382263 56.6929 -56.69287 56.6929l0 0c-31.310669 0 -56.692932 -25.382278 -56.692932 -56.6929z" fill-rule="evenodd"/><path stroke="#ffffff" stroke-width="1.0" stroke-linejoin="round" stroke-linecap="butt" d="m709.668 149.32956l0 0c0 -31.310638 25.382263 -56.692917 56.692932 -56.692917l0 0c15.035889 0 29.455933 5.9729843 40.08795 16.604965c10.631958 10.631989 16.60492 25.052048 16.60492 40.08795l0 0c0 31.310623 -25.382263 56.6929 -56.69287 56.6929l0 0c-31.310669 0 -56.692932 -25.382278 -56.692932 -56.6929z" fill-rule="evenodd"/><path fill="#ff4f4f" fill-opacity="0.8" d="m909.1764 360.0l0 0c0 -31.310638 25.382263 -56.6929 56.69287 -56.6929l0 0c15.03595 0 29.455994 5.9729614 40.08795 16.60495c10.632019 10.631989 16.60498 25.052063 16.60498 40.08795l0 0c0 31.310638 -25.382263 56.6929 -56.692932 56.6929l0 0c-31.310608 0 -56.69287 -25.382263 -56.69287 -56.6929z" fill-rule="evenodd"/><path stroke="#ffffff" stroke-width="1.0" stroke-linejoin="round" stroke-linecap="butt" d="m909.1764 360.0l0 0c0 -31.310638 25.382263 -56.6929 56.69287 -56.6929l0 0c15.03595 0 29.455994 5.9729614 40.08795 16.60495c10.632019 10.631989 16.60498 25.052063 16.60498 40.08795l0 0c0 31.310638 -25.382263 56.6929 -56.692932 56.6929l0 0c-31.310608 0 -56.69287 -25.382263 -56.69287 -56.6929z" fill-rule="evenodd"/><path fill="#000000" fill-opacity="0.0" d="m717.9573 196.31474l-102.04724 119.05513" fill-rule="evenodd"/><path stroke="#ffffff" stroke-width="3.0" stroke-miterlimit="800.0" stroke-linecap="butt" d="m717.9573 196.31476l-87.40448 101.97183" fill-rule="evenodd"/><path fill="#ffffff" stroke="#ffffff" stroke-width="3.0" stroke-linecap="butt" d="m625.547 293.99588l-6.782776 18.044128l16.794434 -9.4627075z" fill-rule="evenodd"/><path fill="#000000" fill-opacity="0.0" d="m636.8799 360.0l257.98615 0" fill-rule="evenodd"/><path stroke="#ffffff" stroke-width="3.0" stroke-miterlimit="800.0" stroke-linecap="butt" d="m636.8799 360.0l235.4862 0" fill-rule="evenodd"/><path fill="#ffffff" stroke="#ffffff" stroke-width="3.0" stroke-linecap="butt" d="m872.3661 366.59308l18.114258 -6.5930786l-18.114258 -6.5930786z" fill-rule="evenodd"/><path fill="#000000" fill-opacity="0.0" d="m815.4607 196.31474l102.04724 119.05513" fill-rule="evenodd"/><path stroke="#ffffff" stroke-width="3.0" stroke-miterlimit="800.0" stroke-linecap="butt" d="m815.4607 196.31476l87.40448 101.97183" fill-rule="evenodd"/><path fill="#ffffff" stroke="#ffffff" stroke-width="3.0" stroke-linecap="butt" d="m897.8593 302.5773l16.794434 9.4627075l-6.782776 -18.044128z" fill-rule="evenodd"/><path fill="#ffde36" fill-opacity="0.8" d="m709.668 580.37836l0 0c0 -31.310608 25.382263 -56.69287 56.692932 -56.69287l0 0c15.035889 0 29.455933 5.9729614 40.08795 16.60492c10.631958 10.632019 16.60492 25.052063 16.60492 40.08795l0 0c0 31.310669 -25.382263 56.692932 -56.69287 56.692932l0 0c-31.310669 0 -56.692932 -25.382263 -56.692932 -56.692932z" fill-rule="evenodd"/><path stroke="#ffffff" stroke-width="1.0" stroke-linejoin="round" stroke-linecap="butt" d="m709.668 580.37836l0 0c0 -31.310608 25.382263 -56.69287 56.692932 -56.69287l0 0c15.035889 0 29.455933 5.9729614 40.08795 16.60492c10.631958 10.632019 16.60492 25.052063 16.60492 40.08795l0 0c0 31.310669 -25.382263 56.692932 -56.69287 56.692932l0 0c-31.310669 0 -56.692932 -25.382263 -56.692932 -56.692932z" fill-rule="evenodd"/><path fill="#ffffff" d="m737.69934 567.6315l3.828125 0q1.125 0 1.671875 0.09375q0.5625 0.09375 1.0 0.40625q0.4375 0.296875 0.734375 0.796875q0.296875 0.5 0.296875 1.109375q0 0.671875 -0.359375 1.234375q-0.359375 0.5625 -0.984375 0.84375q0.875 0.25 1.34375 0.859375q0.46875 0.609375 0.46875 1.4375q0 0.65625 -0.3125 1.265625q-0.296875 0.609375 -0.828125 0.984375q-0.515625 0.359375 -1.28125 0.453125q-0.484375 0.046875 -2.328125 0.0625l-3.25 0l0 -9.546875zm1.9375 1.59375l0 2.203125l1.265625 0q1.125 0 1.390625 -0.03125q0.5 -0.0625 0.78125 -0.34375q0.28125 -0.28125 0.28125 -0.734375q0 -0.453125 -0.25 -0.71875q-0.234375 -0.28125 -0.71875 -0.34375q-0.28125 -0.03125 -1.640625 -0.03125l-1.109375 0zm0 3.796875l0 2.546875l1.78125 0q1.046875 0 1.3125 -0.0625q0.4375 -0.078125 0.703125 -0.375q0.265625 -0.296875 0.265625 -0.8125q0 -0.421875 -0.203125 -0.71875q-0.203125 -0.3125 -0.609375 -0.4375q-0.390625 -0.140625 -1.703125 -0.140625l-1.546875 0zm12.218872 4.15625l0 -1.03125q-0.375 0.546875 -1.0 0.875q-0.609375 0.3125 -1.28125 0.3125q-0.703125 0 -1.265625 -0.296875q-0.546875 -0.3125 -0.796875 -0.859375q-0.234375 -0.5625 -0.234375 -1.53125l0 -4.375l1.828125 0l0 3.171875q0 1.453125 0.09375 1.78125q0.109375 0.328125 0.375 0.53125q0.265625 0.1875 0.671875 0.1875q0.46875 0 0.84375 -0.25q0.375 -0.265625 0.5 -0.640625q0.140625 -0.390625 0.140625 -1.875l0 -2.90625l1.828125 0l0 6.90625l-1.703125 0zm2.9538574 -1.96875l1.828125 -0.28125q0.125 0.53125 0.484375 0.8125q0.359375 0.265625 1.0 0.265625q0.703125 0 1.0625 -0.25q0.25 -0.1875 0.25 -0.484375q0 -0.21875 -0.140625 -0.359375q-0.125 -0.125 -0.609375 -0.234375q-2.203125 -0.484375 -2.796875 -0.890625q-0.828125 -0.5625 -0.828125 -1.5625q0 -0.890625 0.703125 -1.5q0.71875 -0.609375 2.203125 -0.609375q1.421875 0 2.109375 0.46875q0.703125 0.453125 0.953125 1.359375l-1.71875 0.3125q-0.109375 -0.40625 -0.421875 -0.609375q-0.3125 -0.21875 -0.890625 -0.21875q-0.71875 0 -1.03125 0.203125q-0.203125 0.140625 -0.203125 0.359375q0 0.203125 0.1875 0.34375q0.234375 0.171875 1.6875 0.515625q1.46875 0.328125 2.0625 0.8125q0.5625 0.484375 0.5625 1.359375q0 0.953125 -0.796875 1.640625q-0.78125 0.671875 -2.34375 0.671875q-1.40625 0 -2.234375 -0.5625q-0.828125 -0.578125 -1.078125 -1.5625zm8.053101 -5.875l0 -1.703125l1.828125 0l0 1.703125l-1.828125 0zm0 7.84375l0 -6.90625l1.828125 0l0 6.90625l-1.828125 0zm9.999878 0l-1.828125 0l0 -3.53125q0 -1.109375 -0.125 -1.4375q-0.109375 -0.328125 -0.375 -0.515625q-0.265625 -0.1875 -0.640625 -0.1875q-0.46875 0 -0.859375 0.265625q-0.375 0.265625 -0.515625 0.703125q-0.140625 0.421875 -0.140625 1.578125l0 3.125l-1.828125 0l0 -6.90625l1.703125 0l0 1.015625q0.90625 -1.171875 2.28125 -1.171875q0.609375 0 1.109375 0.21875q0.5 0.21875 0.75 0.5625q0.265625 0.328125 0.359375 0.765625q0.109375 0.421875 0.109375 1.21875l0 4.296875zm5.8444824 -2.203125l1.828125 0.3125q-0.34375 1.0 -1.109375 1.53125q-0.765625 0.515625 -1.890625 0.515625q-1.8125 0 -2.671875 -1.171875q-0.6875 -0.953125 -0.6875 -2.390625q0 -1.71875 0.890625 -2.6875q0.90625 -0.96875 2.28125 -0.96875q1.546875 0 2.4375 1.015625q0.890625 1.015625 0.84375 3.125l-4.578125 0q0.015625 0.8125 0.4375 1.265625q0.421875 0.453125 1.0625 0.453125q0.421875 0 0.71875 -0.234375q0.296875 -0.234375 0.4375 -0.765625zm0.109375 -1.84375q-0.015625 -0.796875 -0.40625 -1.203125q-0.390625 -0.421875 -0.953125 -0.421875q-0.59375 0 -0.984375 0.4375q-0.390625 0.4375 -0.390625 1.1875l2.734375 0zm2.6624756 2.078125l1.828125 -0.28125q0.125 0.53125 0.484375 0.8125q0.359375 0.265625 1.0 0.265625q0.703125 0 1.0625 -0.25q0.25 -0.1875 0.25 -0.484375q0 -0.21875 -0.140625 -0.359375q-0.125 -0.125 -0.609375 -0.234375q-2.203125 -0.484375 -2.796875 -0.890625q-0.828125 -0.5625 -0.828125 -1.5625q0 -0.890625 0.703125 -1.5q0.71875 -0.609375 2.203125 -0.609375q1.421875 0 2.109375 0.46875q0.703125 0.453125 0.953125 1.359375l-1.71875 0.3125q-0.109375 -0.40625 -0.421875 -0.609375q-0.3125 -0.21875 -0.890625 -0.21875q-0.71875 0 -1.03125 0.203125q-0.203125 0.140625 -0.203125 0.359375q0 0.203125 0.1875 0.34375q0.234375 0.171875 1.6875 0.515625q1.46875 0.328125 2.0625 0.8125q0.5625 0.484375 0.5625 1.359375q0 0.953125 -0.796875 1.640625q-0.78125 0.671875 -2.34375 0.671875q-1.40625 0 -2.234375 -0.5625q-0.828125 -0.578125 -1.078125 -1.5625zm7.4124756 0l1.828125 -0.28125q0.125 0.53125 0.484375 0.8125q0.359375 0.265625 1.0 0.265625q0.703125 0 1.0625 -0.25q0.25 -0.1875 0.25 -0.484375q0 -0.21875 -0.140625 -0.359375q-0.125 -0.125 -0.609375 -0.234375q-2.203125 -0.484375 -2.796875 -0.890625q-0.828125 -0.5625 -0.828125 -1.5625q0 -0.890625 0.703125 -1.5q0.71875 -0.609375 2.203125 -0.609375q1.421875 0 2.109375 0.46875q0.703125 0.453125 0.953125 1.359375l-1.71875 0.3125q-0.109375 -0.40625 -0.421875 -0.609375q-0.3125 -0.21875 -0.890625 -0.21875q-0.71875 0 -1.03125 0.203125q-0.203125 0.140625 -0.203125 0.359375q0 0.203125 0.1875 0.34375q0.234375 0.171875 1.6875 0.515625q1.46875 0.328125 2.0625 0.8125q0.5625 0.484375 0.5625 1.359375q0 0.953125 -0.796875 1.640625q-0.78125 0.671875 -2.34375 0.671875q-1.40625 0 -2.234375 -0.5625q-0.828125 -0.578125 -1.078125 -1.5625z" fill-rule="nonzero"/><path fill="#ffffff" d="m746.3087 593.17834l-2.09375 0l-0.84375 -2.171875l-3.8125 0l-0.78125 2.171875l-2.046875 0l3.71875 -9.546875l2.03125 0l3.828125 9.546875zm-3.546875 -3.78125l-1.3125 -3.53125l-1.296875 3.53125l2.609375 0zm10.843872 3.78125l-1.828125 0l0 -3.53125q0 -1.109375 -0.125 -1.4375q-0.109375 -0.328125 -0.375 -0.515625q-0.265625 -0.1875 -0.640625 -0.1875q-0.46875 0 -0.859375 0.265625q-0.375 0.265625 -0.515625 0.703125q-0.140625 0.421875 -0.140625 1.578125l0 3.125l-1.828125 0l0 -6.90625l1.703125 0l0 1.015625q0.90625 -1.171875 2.28125 -1.171875q0.609375 0 1.109375 0.21875q0.5 0.21875 0.75 0.5625q0.265625 0.328125 0.359375 0.765625q0.109375 0.421875 0.109375 1.21875l0 4.296875zm3.2194824 -4.796875l-1.671875 -0.3125q0.28125 -1.0 0.96875 -1.46875q0.6875 -0.484375 2.03125 -0.484375q1.21875 0 1.8125 0.296875q0.609375 0.28125 0.84375 0.734375q0.25 0.4375 0.25 1.625l-0.015625 2.140625q0 0.90625 0.078125 1.34375q0.09375 0.421875 0.34375 0.921875l-1.8125 0q-0.078125 -0.1875 -0.171875 -0.546875q-0.046875 -0.15625 -0.078125 -0.203125q-0.46875 0.453125 -1.0 0.6875q-0.53125 0.21875 -1.140625 0.21875q-1.0625 0 -1.6875 -0.578125q-0.609375 -0.578125 -0.609375 -1.46875q0 -0.578125 0.28125 -1.03125q0.28125 -0.46875 0.78125 -0.703125q0.515625 -0.25 1.46875 -0.4375q1.28125 -0.234375 1.765625 -0.453125l0 -0.171875q0 -0.53125 -0.265625 -0.75q-0.25 -0.234375 -0.96875 -0.234375q-0.484375 0 -0.765625 0.203125q-0.265625 0.1875 -0.4375 0.671875zm2.4375 1.484375q-0.34375 0.109375 -1.109375 0.28125q-0.765625 0.15625 -1.0 0.3125q-0.359375 0.25 -0.359375 0.640625q0 0.390625 0.28125 0.671875q0.296875 0.28125 0.734375 0.28125q0.5 0 0.953125 -0.328125q0.328125 -0.25 0.4375 -0.609375q0.0625 -0.234375 0.0625 -0.890625l0 -0.359375zm3.5999756 3.3125l0 -9.546875l1.828125 0l0 9.546875l-1.828125 0zm2.843628 -6.90625l1.9375 0l1.65625 4.90625l1.609375 -4.90625l1.90625 0l-2.453125 6.640625l-0.421875 1.203125q-0.25 0.609375 -0.46875 0.921875q-0.21875 0.328125 -0.5 0.515625q-0.28125 0.203125 -0.703125 0.3125q-0.40625 0.125 -0.921875 0.125q-0.53125 0 -1.03125 -0.125l-0.171875 -1.421875q0.4375 0.078125 0.78125 0.078125q0.640625 0 0.9375 -0.375q0.3125 -0.375 0.46875 -0.953125l-2.625 -6.921875zm11.443726 0l0 1.453125l-1.25 0l0 2.78125q0 0.84375 0.03125 0.984375q0.046875 0.140625 0.171875 0.234375q0.125 0.09375 0.3125 0.09375q0.25 0 0.734375 -0.171875l0.15625 1.421875q-0.640625 0.265625 -1.453125 0.265625q-0.484375 0 -0.890625 -0.15625q-0.390625 -0.171875 -0.578125 -0.4375q-0.1875 -0.265625 -0.265625 -0.71875q-0.046875 -0.3125 -0.046875 -1.28125l0 -3.015625l-0.84375 0l0 -1.453125l0.84375 0l0 -1.375l1.828125 -1.078125l0 2.453125l1.25 0zm1.2664795 -0.9375l0 -1.703125l1.828125 0l0 1.703125l-1.828125 0zm0 7.84375l0 -6.90625l1.828125 0l0 6.90625l-1.828125 0zm9.734253 -4.875l-1.796875 0.328125q-0.09375 -0.53125 -0.421875 -0.796875q-0.328125 -0.28125 -0.828125 -0.28125q-0.6875 0 -1.09375 0.46875q-0.40625 0.46875 -0.40625 1.578125q0 1.234375 0.40625 1.75q0.421875 0.5 1.109375 0.5q0.53125 0 0.859375 -0.296875q0.328125 -0.296875 0.46875 -1.03125l1.796875 0.3125q-0.28125 1.234375 -1.078125 1.875q-0.796875 0.625 -2.125 0.625q-1.515625 0 -2.421875 -0.953125q-0.90625 -0.953125 -0.90625 -2.65625q0 -1.703125 0.90625 -2.65625q0.90625 -0.953125 2.453125 -0.953125q1.265625 0 2.0 0.546875q0.75 0.53125 1.078125 1.640625zm0.7406006 2.90625l1.828125 -0.28125q0.125 0.53125 0.484375 0.8125q0.359375 0.265625 1.0 0.265625q0.703125 0 1.0625 -0.25q0.25 -0.1875 0.25 -0.484375q0 -0.21875 -0.140625 -0.359375q-0.125 -0.125 -0.609375 -0.234375q-2.203125 -0.484375 -2.796875 -0.890625q-0.828125 -0.5625 -0.828125 -1.5625q0 -0.890625 0.703125 -1.5q0.71875 -0.609375 2.203125 -0.609375q1.421875 0 2.109375 0.46875q0.703125 0.453125 0.953125 1.359375l-1.71875 0.3125q-0.109375 -0.40625 -0.421875 -0.609375q-0.3125 -0.21875 -0.890625 -0.21875q-0.71875 0 -1.03125 0.203125q-0.203125 0.140625 -0.203125 0.359375q0 0.203125 0.1875 0.34375q0.234375 0.171875 1.6875 0.515625q1.46875 0.328125 2.0625 0.8125q0.5625 0.484375 0.5625 1.359375q0 0.953125 -0.796875 1.640625q-0.78125 0.671875 -2.34375 0.671875q-1.40625 0 -2.234375 -0.5625q-0.828125 -0.578125 -1.078125 -1.5625z" fill-rule="nonzero"/><path fill="#000000" fill-opacity="0.0" d="m713.6428 533.15845l-102.04724 -119.055145" fill-rule="evenodd"/><path stroke="#ffffff" stroke-width="3.0" stroke-miterlimit="800.0" stroke-linecap="butt" d="m699.0 516.07513l-87.40442 -101.97183" fill-rule="evenodd"/><path fill="#ffffff" stroke="#ffffff" stroke-width="3.0" stroke-linecap="butt" d="m693.99414 520.36584l16.794495 9.4627075l-6.782837 -18.044128z" fill-rule="evenodd"/><path fill="#000000" fill-opacity="0.0" d="m815.4607 533.15845l102.04724 -119.055145" fill-rule="evenodd"/><path stroke="#ffffff" stroke-width="3.0" stroke-miterlimit="800.0" stroke-linecap="butt" d="m830.1035 516.07513l87.40442 -101.97183" fill-rule="evenodd"/><path fill="#ffffff" stroke="#ffffff" stroke-width="3.0" stroke-linecap="butt" d="m825.0977 511.78445l-6.782837 18.044098l16.794495 -9.4627075z" fill-rule="evenodd"/><path fill="#000000" fill-opacity="0.0" d="m692.5511 104.73218l105.700806 0l0 89.19685l-105.700806 0z" fill-rule="evenodd"/><path fill="#ffffff" d="m755.3466 155.0131l8.234375 2.609375q-1.890625 6.875 -6.296875 10.21875q-4.390625 3.328125 -11.15625 3.328125q-8.359375 0 -13.75 -5.71875q-5.375 -5.71875 -5.375 -15.625q0 -10.484375 5.40625 -16.28125q5.421875 -5.796875 14.234375 -5.796875q7.703125 0 12.515625 4.546875q2.875 2.703125 4.296875 7.734375l-8.390625 2.015625q-0.75 -3.265625 -3.109375 -5.15625q-2.359375 -1.890625 -5.734375 -1.890625q-4.671875 0 -7.578125 3.359375q-2.90625 3.34375 -2.90625 10.84375q0 7.953125 2.859375 11.34375q2.859375 3.375 7.453125 3.375q3.375 0 5.8125 -2.140625q2.4375 -2.15625 3.484375 -6.765625z" fill-rule="nonzero"/><path fill="#000000" fill-opacity="0.0" d="m739.7829 107.118004l105.700806 0l0 89.196846l-105.700806 0z" fill-rule="evenodd"/><path fill="#ffffff" d="m778.09625 157.5458q0.109375 0.328125 0.140625 0.515625q0.03125 0.1875 -0.078125 0.296875q-0.09375 0.09375 -0.359375 0.109375q-0.25 0.015625 -0.6875 0.015625q-0.46875 0 -0.734375 -0.015625q-0.25 0 -0.390625 -0.03125q-0.140625 -0.046875 -0.203125 -0.125q-0.046875 -0.078125 -0.078125 -0.1875l-0.796875 -2.375l-4.421875 0l-0.75 2.3125q-0.03125 0.125 -0.09375 0.21875q-0.0625 0.078125 -0.203125 0.125q-0.125 0.046875 -0.375 0.0625q-0.234375 0.015625 -0.625 0.015625q-0.421875 0 -0.65625 -0.03125q-0.234375 -0.015625 -0.328125 -0.109375q-0.09375 -0.109375 -0.0625 -0.296875q0.03125 -0.203125 0.140625 -0.515625l3.640625 -10.46875q0.046875 -0.15625 0.109375 -0.25q0.078125 -0.09375 0.234375 -0.140625q0.171875 -0.046875 0.453125 -0.0625q0.28125 -0.015625 0.75 -0.015625q0.53125 0 0.84375 0.015625q0.328125 0.015625 0.5 0.0625q0.1875 0.046875 0.25 0.15625q0.078125 0.09375 0.140625 0.265625l3.640625 10.453125zm-5.40625 -8.640625l-0.015625 0l-1.65625 5.0l3.34375 0l-1.671875 -5.0zm16.36084 5.140625q0 1.078125 -0.328125 1.9375q-0.3125 0.859375 -0.9375 1.453125q-0.609375 0.59375 -1.53125 0.90625q-0.90625 0.296875 -2.09375 0.296875q-1.109375 0 -2.0 -0.265625q-0.875 -0.28125 -1.484375 -0.84375q-0.609375 -0.5625 -0.9375 -1.40625q-0.3125 -0.84375 -0.3125 -1.984375l0 -7.15625q0 -0.09375 0.046875 -0.171875q0.0625 -0.078125 0.203125 -0.109375q0.140625 -0.046875 0.359375 -0.078125q0.234375 -0.03125 0.59375 -0.03125q0.34375 0 0.5625 0.03125q0.234375 0.03125 0.359375 0.078125q0.140625 0.03125 0.203125 0.109375q0.0625 0.078125 0.0625 0.171875l0 6.953125q0 0.703125 0.171875 1.21875q0.171875 0.515625 0.5 0.859375q0.328125 0.328125 0.765625 0.5q0.453125 0.15625 1.015625 0.15625q0.5625 0 1.0 -0.171875q0.453125 -0.171875 0.765625 -0.5q0.3125 -0.328125 0.46875 -0.8125q0.171875 -0.5 0.171875 -1.109375l0 -7.09375q0 -0.09375 0.046875 -0.171875q0.0625 -0.078125 0.203125 -0.109375q0.140625 -0.046875 0.359375 -0.078125q0.234375 -0.03125 0.59375 -0.03125q0.34375 0 0.5625 0.03125q0.21875 0.03125 0.359375 0.078125q0.140625 0.03125 0.1875 0.109375q0.0625 0.078125 0.0625 0.171875l0 7.0625zm9.538757 0.859375q0 0.921875 -0.34375 1.625q-0.34375 0.703125 -0.9375 1.171875q-0.59375 0.46875 -1.390625 0.703125q-0.78125 0.234375 -1.6875 0.234375q-0.609375 0 -1.140625 -0.09375q-0.515625 -0.09375 -0.921875 -0.234375q-0.390625 -0.140625 -0.671875 -0.296875q-0.265625 -0.15625 -0.390625 -0.265625q-0.109375 -0.125 -0.15625 -0.34375q-0.046875 -0.234375 -0.046875 -0.65625q0 -0.28125 0.015625 -0.46875q0.015625 -0.1875 0.046875 -0.3125q0.046875 -0.125 0.109375 -0.171875q0.078125 -0.046875 0.171875 -0.046875q0.125 0 0.359375 0.15625q0.234375 0.140625 0.59375 0.328125q0.359375 0.1875 0.859375 0.34375q0.515625 0.140625 1.1875 0.140625q0.4375 0 0.78125 -0.109375q0.34375 -0.109375 0.578125 -0.296875q0.25 -0.1875 0.375 -0.46875q0.125 -0.28125 0.125 -0.625q0 -0.40625 -0.21875 -0.6875q-0.21875 -0.296875 -0.578125 -0.515625q-0.34375 -0.21875 -0.796875 -0.40625q-0.4375 -0.203125 -0.90625 -0.421875q-0.46875 -0.21875 -0.921875 -0.5q-0.453125 -0.28125 -0.796875 -0.671875q-0.34375 -0.390625 -0.5625 -0.90625q-0.21875 -0.53125 -0.21875 -1.265625q0 -0.859375 0.3125 -1.5q0.3125 -0.640625 0.84375 -1.0625q0.53125 -0.421875 1.25 -0.625q0.734375 -0.21875 1.546875 -0.21875q0.40625 0 0.828125 0.0625q0.421875 0.0625 0.78125 0.171875q0.375 0.109375 0.65625 0.25q0.28125 0.140625 0.359375 0.234375q0.09375 0.078125 0.125 0.15625q0.046875 0.0625 0.0625 0.171875q0.015625 0.09375 0.03125 0.25q0.015625 0.15625 0.015625 0.40625q0 0.265625 -0.015625 0.453125q-0.015625 0.171875 -0.046875 0.296875q-0.03125 0.109375 -0.09375 0.171875q-0.0625 0.046875 -0.15625 0.046875q-0.109375 0 -0.328125 -0.125q-0.21875 -0.125 -0.53125 -0.28125q-0.3125 -0.15625 -0.734375 -0.265625q-0.421875 -0.125 -0.921875 -0.125q-0.390625 0 -0.6875 0.09375q-0.28125 0.09375 -0.484375 0.265625q-0.203125 0.171875 -0.296875 0.40625q-0.09375 0.234375 -0.09375 0.5q0 0.390625 0.21875 0.6875q0.21875 0.28125 0.578125 0.5q0.359375 0.21875 0.8125 0.421875q0.453125 0.1875 0.921875 0.40625q0.484375 0.21875 0.9375 0.5q0.453125 0.28125 0.796875 0.671875q0.359375 0.375 0.578125 0.90625q0.21875 0.515625 0.21875 1.234375zm11.262024 2.640625q0.109375 0.328125 0.140625 0.515625q0.03125 0.1875 -0.078125 0.296875q-0.09375 0.09375 -0.359375 0.109375q-0.25 0.015625 -0.6875 0.015625q-0.46875 0 -0.734375 -0.015625q-0.25 0 -0.390625 -0.03125q-0.140625 -0.046875 -0.203125 -0.125q-0.046875 -0.078125 -0.078125 -0.1875l-0.796875 -2.375l-4.421875 0l-0.75 2.3125q-0.03125 0.125 -0.09375 0.21875q-0.0625 0.078125 -0.203125 0.125q-0.125 0.046875 -0.375 0.0625q-0.234375 0.015625 -0.625 0.015625q-0.421875 0 -0.65625 -0.03125q-0.234375 -0.015625 -0.328125 -0.109375q-0.09375 -0.109375 -0.0625 -0.296875q0.03125 -0.203125 0.140625 -0.515625l3.640625 -10.46875q0.046875 -0.15625 0.109375 -0.25q0.078125 -0.09375 0.234375 -0.140625q0.171875 -0.046875 0.453125 -0.0625q0.28125 -0.015625 0.75 -0.015625q0.53125 0 0.84375 0.015625q0.328125 0.015625 0.5 0.0625q0.1875 0.046875 0.25 0.15625q0.078125 0.09375 0.140625 0.265625l3.640625 10.453125zm-5.40625 -8.640625l-0.015625 0l-1.65625 5.0l3.34375 0l-1.671875 -5.0zm13.539246 8.53125q0 0.265625 -0.03125 0.453125q-0.015625 0.1875 -0.0625 0.3125q-0.046875 0.125 -0.125 0.1875q-0.0625 0.046875 -0.15625 0.046875l-5.390625 0q-0.3125 0 -0.515625 -0.171875q-0.203125 -0.1875 -0.203125 -0.578125l0 -10.703125q0 -0.09375 0.0625 -0.171875q0.0625 -0.078125 0.1875 -0.109375q0.140625 -0.046875 0.375 -0.078125q0.234375 -0.03125 0.578125 -0.03125q0.359375 0 0.578125 0.03125q0.234375 0.03125 0.375 0.078125q0.140625 0.03125 0.1875 0.109375q0.0625 0.078125 0.0625 0.171875l0 9.46875l3.703125 0q0.09375 0 0.15625 0.0625q0.078125 0.046875 0.125 0.15625q0.046875 0.109375 0.0625 0.296875q0.03125 0.1875 0.03125 0.46875z" fill-rule="nonzero"/><g mask="url(#mask-p17.1)"><use xlink:href="#p17.1" transform="matrix(1.0 0.0 0.0 -1.0 0.0 810.6339107611549)"/></g><defs><mask id="mask-p17.1" maskUnits="userSpaceOnUse" x="496.81795275590554" y="407.31695538057744" width="105.70078740157481" height="89.1968503937008"><linearGradient gradientUnits="userSpaceOnUse" id="gradient-p17.1" x1="496.81795275720094" y1="407.31658534529174" x2="496.81785907922256" y2="434.0757525369735"><stop offset="0%" stop-color="#ffffff" stop-opacity="1.0"/><stop offset="100%" stop-color="#ffffff" stop-opacity="0.0"/></linearGradient><rect fill="url(#gradient-p17.1)" x="496.81795275590554" y="407.31695538057744" width="105.70078740157481" height="89.1968503937008"/></mask></defs><g id="p17.1"><path fill="#000000" fill-opacity="0.0" d="m496.81796 314.12012l105.700775 0l0 89.19684l-105.700775 0z" fill-rule="evenodd"/><path fill="#ffffff" d="m532.7229 337.85416l15.5 0q5.234375 0 7.984375 0.796875q3.703125 1.09375 6.328125 3.875q2.640625 2.765625 4.015625 6.796875q1.375 4.015625 1.375 9.921875q0 5.1875 -1.28125 8.9375q-1.578125 4.578125 -4.5 7.421875q-2.203125 2.140625 -5.953125 3.34375q-2.8125 0.890625 -7.515625 0.890625l-15.953125 0l0 -41.984375zm8.484375 7.09375l0 27.8125l6.328125 0q3.546875 0 5.125 -0.390625q2.0625 -0.515625 3.421875 -1.75q1.359375 -1.234375 2.21875 -4.046875q0.859375 -2.828125 0.859375 -7.703125q0 -4.859375 -0.859375 -7.46875q-0.859375 -2.609375 -2.40625 -4.0625q-1.546875 -1.46875 -3.921875 -1.984375q-1.78125 -0.40625 -6.953125 -0.40625l-3.8125 0z" fill-rule="nonzero"/></g><g mask="url(#mask-p17.2)"><use xlink:href="#p17.2" transform="matrix(1.0 0.0 0.0 -1.0 0.0 810.6339107611549)"/></g><defs><mask id="mask-p17.2" maskUnits="userSpaceOnUse" x="531.1791076115486" y="407.31695538057744" width="105.70078740157476" height="89.1968503937008"><linearGradient gradientUnits="userSpaceOnUse" id="gradient-p17.2" x1="531.179107612844" y1="407.31658534529174" x2="531.1790139348657" y2="434.0757525369735"><stop offset="0%" stop-color="#ffffff" stop-opacity="1.0"/><stop offset="100%" stop-color="#ffffff" stop-opacity="0.0"/></linearGradient><rect fill="url(#gradient-p17.2)" x="531.1791076115486" y="407.31695538057744" width="105.70078740157476" height="89.1968503937008"/></mask></defs><g id="p17.2"><path fill="#000000" fill-opacity="0.0" d="m531.1791 314.12012l105.700806 0l0 89.19684l-105.700806 0z" fill-rule="evenodd"/><path fill="#ffffff" d="m580.5065 364.5479q0.109375 0.328125 0.140625 0.515625q0.03125 0.1875 -0.078125 0.296875q-0.09375 0.09375 -0.359375 0.109375q-0.25 0.015625 -0.6875 0.015625q-0.46875 0 -0.734375 -0.015625q-0.25 0 -0.390625 -0.03125q-0.140625 -0.046875 -0.203125 -0.125q-0.046875 -0.078125 -0.078125 -0.1875l-0.796875 -2.375l-4.421875 0l-0.75 2.3125q-0.03125 0.125 -0.09375 0.21875q-0.0625 0.078125 -0.203125 0.125q-0.125 0.046875 -0.375 0.0625q-0.234375 0.015625 -0.625 0.015625q-0.421875 0 -0.65625 -0.03125q-0.234375 -0.015625 -0.328125 -0.109375q-0.09375 -0.109375 -0.0625 -0.296875q0.03125 -0.203125 0.140625 -0.515625l3.640625 -10.46875q0.046875 -0.15625 0.109375 -0.25q0.078125 -0.09375 0.234375 -0.140625q0.171875 -0.046875 0.453125 -0.0625q0.28125 -0.015625 0.75 -0.015625q0.53125 0 0.84375 0.015625q0.328125 0.015625 0.5 0.0625q0.1875 0.046875 0.25 0.15625q0.078125 0.09375 0.140625 0.265625l3.640625 10.453125zm-5.40625 -8.640625l-0.015625 0l-1.65625 5.0l3.34375 0l-1.671875 -5.0zm13.440308 -1.265625q0 0.25 -0.03125 0.4375q-0.015625 0.1875 -0.0625 0.3125q-0.046875 0.109375 -0.109375 0.171875q-0.0625 0.046875 -0.15625 0.046875l-2.9375 0l0 9.5q0 0.09375 -0.0625 0.171875q-0.0625 0.0625 -0.203125 0.109375q-0.140625 0.046875 -0.375 0.0625q-0.21875 0.03125 -0.5625 0.03125q-0.359375 0 -0.59375 -0.03125q-0.21875 -0.015625 -0.359375 -0.0625q-0.140625 -0.046875 -0.203125 -0.109375q-0.046875 -0.078125 -0.046875 -0.171875l0 -9.5l-2.953125 0q-0.09375 0 -0.15625 -0.046875q-0.0625 -0.0625 -0.109375 -0.171875q-0.046875 -0.125 -0.078125 -0.3125q-0.015625 -0.1875 -0.015625 -0.4375q0 -0.28125 0.015625 -0.46875q0.03125 -0.1875 0.078125 -0.296875q0.046875 -0.125 0.109375 -0.171875q0.0625 -0.046875 0.15625 -0.046875l8.296875 0q0.09375 0 0.15625 0.046875q0.0625 0.046875 0.109375 0.171875q0.046875 0.109375 0.0625 0.296875q0.03125 0.1875 0.03125 0.46875zm9.582092 9.90625q0.109375 0.328125 0.140625 0.515625q0.03125 0.1875 -0.078125 0.296875q-0.09375 0.09375 -0.359375 0.109375q-0.25 0.015625 -0.6875 0.015625q-0.46875 0 -0.734375 -0.015625q-0.25 0 -0.390625 -0.03125q-0.140625 -0.046875 -0.203125 -0.125q-0.046875 -0.078125 -0.078125 -0.1875l-0.796875 -2.375l-4.421875 0l-0.75 2.3125q-0.03125 0.125 -0.09375 0.21875q-0.0625 0.078125 -0.203125 0.125q-0.125 0.046875 -0.375 0.0625q-0.234375 0.015625 -0.625 0.015625q-0.421875 0 -0.65625 -0.03125q-0.234375 -0.015625 -0.328125 -0.109375q-0.09375 -0.109375 -0.0625 -0.296875q0.03125 -0.203125 0.140625 -0.515625l3.640625 -10.46875q0.046875 -0.15625 0.109375 -0.25q0.078125 -0.09375 0.234375 -0.140625q0.171875 -0.046875 0.453125 -0.0625q0.28125 -0.015625 0.75 -0.015625q0.53125 0 0.84375 0.015625q0.328125 0.015625 0.5 0.0625q0.1875 0.046875 0.25 0.15625q0.078125 0.09375 0.140625 0.265625l3.640625 10.453125zm-5.40625 -8.640625l-0.015625 0l-1.65625 5.0l3.34375 0l-1.671875 -5.0z" fill-rule="nonzero"/></g><path fill="#000000" fill-opacity="0.0" d="m894.866 314.12012l105.700806 0l0 89.19684l-105.700806 0z" fill-rule="evenodd"/><path fill="#ffffff" d="m930.2798 366.18228l8.25 -0.8125q0.734375 4.15625 3.015625 6.109375q2.28125 1.9375 6.140625 1.9375q4.09375 0 6.171875 -1.71875q2.078125 -1.734375 2.078125 -4.0625q0 -1.484375 -0.875 -2.53125q-0.875 -1.046875 -3.046875 -1.8125q-1.484375 -0.515625 -6.796875 -1.84375q-6.8125 -1.6875 -9.5625 -4.15625q-3.859375 -3.453125 -3.859375 -8.4375q0 -3.21875 1.8125 -6.0q1.828125 -2.796875 5.25 -4.25q3.421875 -1.46875 8.25 -1.46875q7.90625 0 11.90625 3.46875q4.0 3.46875 4.203125 9.25l-8.484375 0.375q-0.546875 -3.234375 -2.34375 -4.65625q-1.78125 -1.421875 -5.359375 -1.421875q-3.703125 0 -5.78125 1.515625q-1.34375 0.984375 -1.34375 2.609375q0 1.484375 1.25 2.546875q1.609375 1.34375 7.796875 2.8125q6.1875 1.453125 9.140625 3.015625q2.96875 1.5625 4.640625 4.28125q1.6875 2.703125 1.6875 6.671875q0 3.609375 -2.015625 6.765625q-2.0 3.15625 -5.671875 4.6875q-3.65625 1.53125 -9.125 1.53125q-7.96875 0 -12.234375 -3.671875q-4.265625 -3.6875 -5.09375 -10.734375z" fill-rule="nonzero"/><path fill="#000000" fill-opacity="0.0" d="m938.93494 314.12012l105.700806 0l0 89.19684l-105.700806 0z" fill-rule="evenodd"/><path fill="#ffffff" d="m973.61646 363.6573q0 0.21875 -0.015625 0.390625q-0.015625 0.15625 -0.046875 0.265625q-0.015625 0.109375 -0.0625 0.203125q-0.046875 0.078125 -0.15625 0.1875q-0.09375 0.09375 -0.390625 0.265625q-0.28125 0.15625 -0.703125 0.3125q-0.40625 0.140625 -0.9375 0.234375q-0.53125 0.109375 -1.15625 0.109375q-1.203125 0 -2.1875 -0.375q-0.96875 -0.375 -1.65625 -1.109375q-0.671875 -0.75 -1.046875 -1.859375q-0.359375 -1.109375 -0.359375 -2.578125q0 -1.5 0.390625 -2.671875q0.40625 -1.171875 1.125 -1.953125q0.71875 -0.796875 1.71875 -1.203125q1.015625 -0.421875 2.234375 -0.421875q0.484375 0 0.9375 0.09375q0.46875 0.078125 0.84375 0.21875q0.390625 0.125 0.703125 0.296875q0.3125 0.171875 0.4375 0.296875q0.125 0.125 0.15625 0.203125q0.046875 0.078125 0.078125 0.203125q0.03125 0.125 0.046875 0.3125q0.015625 0.171875 0.015625 0.421875q0 0.265625 -0.03125 0.46875q-0.015625 0.1875 -0.0625 0.3125q-0.03125 0.109375 -0.109375 0.171875q-0.0625 0.046875 -0.140625 0.046875q-0.140625 0 -0.34375 -0.15625q-0.203125 -0.15625 -0.546875 -0.34375q-0.328125 -0.203125 -0.796875 -0.359375q-0.453125 -0.171875 -1.09375 -0.171875q-0.703125 0 -1.25 0.296875q-0.546875 0.28125 -0.9375 0.8125q-0.390625 0.53125 -0.59375 1.296875q-0.1875 0.75 -0.1875 1.703125q0 1.03125 0.203125 1.796875q0.21875 0.75 0.609375 1.25q0.40625 0.484375 0.953125 0.734375q0.5625 0.234375 1.265625 0.234375q0.640625 0 1.109375 -0.140625q0.46875 -0.15625 0.796875 -0.328125q0.328125 -0.1875 0.546875 -0.328125q0.21875 -0.15625 0.328125 -0.15625q0.09375 0 0.140625 0.046875q0.0625 0.03125 0.09375 0.140625q0.046875 0.109375 0.0625 0.3125q0.015625 0.1875 0.015625 0.515625zm4.124695 1.453125q0 0.09375 -0.0625 0.171875q-0.046875 0.0625 -0.1875 0.109375q-0.140625 0.046875 -0.375 0.0625q-0.21875 0.03125 -0.578125 0.03125q-0.34375 0 -0.578125 -0.03125q-0.234375 -0.015625 -0.375 -0.0625q-0.125 -0.046875 -0.1875 -0.109375q-0.0625 -0.078125 -0.0625 -0.171875l0 -11.125q0 -0.09375 0.0625 -0.171875q0.0625 -0.078125 0.203125 -0.109375q0.140625 -0.046875 0.359375 -0.078125q0.234375 -0.03125 0.578125 -0.03125q0.359375 0 0.578125 0.03125q0.234375 0.03125 0.375 0.078125q0.140625 0.03125 0.1875 0.109375q0.0625 0.078125 0.0625 0.171875l0 11.125zm9.551941 -0.609375q0 0.265625 -0.03125 0.453125q-0.015625 0.171875 -0.0625 0.28125q-0.03125 0.109375 -0.109375 0.15625q-0.0625 0.046875 -0.140625 0.046875l-5.921875 0q-0.3125 0 -0.515625 -0.171875q-0.203125 -0.1875 -0.203125 -0.578125l0 -10.28125q0 -0.40625 0.203125 -0.578125q0.203125 -0.171875 0.515625 -0.171875l5.875 0q0.09375 0 0.15625 0.046875q0.0625 0.03125 0.109375 0.15625q0.046875 0.109375 0.0625 0.296875q0.015625 0.171875 0.015625 0.4375q0 0.265625 -0.015625 0.4375q-0.015625 0.171875 -0.0625 0.28125q-0.046875 0.109375 -0.109375 0.171875q-0.0625 0.046875 -0.15625 0.046875l-4.203125 0l0 2.875l3.5625 0q0.078125 0 0.140625 0.046875q0.078125 0.046875 0.125 0.15625q0.046875 0.109375 0.0625 0.28125q0.03125 0.171875 0.03125 0.4375q0 0.265625 -0.03125 0.4375q-0.015625 0.171875 -0.0625 0.28125q-0.046875 0.09375 -0.125 0.140625q-0.0625 0.046875 -0.140625 0.046875l-3.5625 0l0 3.328125l4.25 0q0.078125 0 0.140625 0.046875q0.078125 0.046875 0.109375 0.15625q0.046875 0.109375 0.0625 0.296875q0.03125 0.171875 0.03125 0.4375zm11.834778 0.09375q0 0.21875 -0.078125 0.390625q-0.0625 0.15625 -0.1875 0.265625q-0.125 0.109375 -0.296875 0.15625q-0.15625 0.046875 -0.328125 0.046875l-1.03125 0q-0.3125 0 -0.546875 -0.0625q-0.234375 -0.0625 -0.4375 -0.234375q-0.1875 -0.171875 -0.375 -0.453125q-0.171875 -0.28125 -0.40625 -0.734375l-2.9375 -5.515625q-0.25 -0.5 -0.515625 -1.0625q-0.265625 -0.578125 -0.46875 -1.109375l-0.015625 0q0.03125 0.65625 0.046875 1.3125q0.015625 0.640625 0.015625 1.34375l0 6.15625q0 0.09375 -0.046875 0.171875q-0.046875 0.078125 -0.171875 0.125q-0.125 0.046875 -0.34375 0.0625q-0.203125 0.03125 -0.53125 0.03125q-0.3125 0 -0.53125 -0.03125q-0.203125 -0.015625 -0.328125 -0.0625q-0.109375 -0.046875 -0.15625 -0.125q-0.046875 -0.078125 -0.046875 -0.171875l0 -10.59375q0 -0.421875 0.25 -0.625q0.25 -0.21875 0.625 -0.21875l1.28125 0q0.34375 0 0.578125 0.0625q0.234375 0.046875 0.421875 0.1875q0.1875 0.140625 0.34375 0.390625q0.171875 0.234375 0.34375 0.578125l2.296875 4.3125q0.203125 0.390625 0.390625 0.78125q0.203125 0.375 0.375 0.75q0.1875 0.375 0.359375 0.75q0.1875 0.359375 0.34375 0.71875l0.015625 0q-0.03125 -0.640625 -0.046875 -1.328125q-0.015625 -0.703125 -0.015625 -1.328125l0 -5.53125q0 -0.09375 0.046875 -0.15625q0.0625 -0.078125 0.1875 -0.125q0.125 -0.0625 0.328125 -0.078125q0.21875 -0.03125 0.546875 -0.03125q0.3125 0 0.515625 0.03125q0.21875 0.015625 0.328125 0.078125q0.109375 0.046875 0.15625 0.125q0.046875 0.0625 0.046875 0.15625l0 10.59375zm10.726196 -0.9375q0 0.21875 -0.015625 0.390625q-0.015625 0.15625 -0.046875 0.265625q-0.015625 0.109375 -0.0625 0.203125q-0.046875 0.078125 -0.15625 0.1875q-0.09375 0.09375 -0.390625 0.265625q-0.28125 0.15625 -0.703125 0.3125q-0.40625 0.140625 -0.9375 0.234375q-0.53125 0.109375 -1.15625 0.109375q-1.203125 0 -2.1875 -0.375q-0.96875 -0.375 -1.65625 -1.109375q-0.671875 -0.75 -1.046875 -1.859375q-0.359375 -1.109375 -0.359375 -2.578125q0 -1.5 0.390625 -2.671875q0.40625 -1.171875 1.125 -1.953125q0.71875 -0.796875 1.71875 -1.203125q1.015625 -0.421875 2.234375 -0.421875q0.484375 0 0.9375 0.09375q0.46875 0.078125 0.84375 0.21875q0.390625 0.125 0.703125 0.296875q0.3125 0.171875 0.4375 0.296875q0.125 0.125 0.15625 0.203125q0.046875 0.078125 0.078125 0.203125q0.03125 0.125 0.046875 0.3125q0.015625 0.171875 0.015625 0.421875q0 0.265625 -0.03125 0.46875q-0.015625 0.1875 -0.0625 0.3125q-0.03125 0.109375 -0.109375 0.171875q-0.0625 0.046875 -0.140625 0.046875q-0.140625 0 -0.34375 -0.15625q-0.203125 -0.15625 -0.546875 -0.34375q-0.328125 -0.203125 -0.796875 -0.359375q-0.453125 -0.171875 -1.09375 -0.171875q-0.703125 0 -1.25 0.296875q-0.546875 0.28125 -0.9375 0.8125q-0.390625 0.53125 -0.59375 1.296875q-0.1875 0.75 -0.1875 1.703125q0 1.03125 0.203125 1.796875q0.21875 0.75 0.609375 1.25q0.40625 0.484375 0.953125 0.734375q0.5625 0.234375 1.265625 0.234375q0.640625 0 1.109375 -0.140625q0.46875 -0.15625 0.796875 -0.328125q0.328125 -0.1875 0.546875 -0.328125q0.21875 -0.15625 0.328125 -0.15625q0.09375 0 0.140625 0.046875q0.0625 0.03125 0.09375 0.140625q0.046875 0.109375 0.0625 0.3125q0.015625 0.1875 0.015625 0.515625zm8.70282 0.84375q0 0.265625 -0.03125 0.453125q-0.015625 0.171875 -0.0625 0.28125q-0.03125 0.109375 -0.109375 0.15625q-0.0625 0.046875 -0.140625 0.046875l-5.921875 0q-0.3125 0 -0.515625 -0.171875q-0.203125 -0.1875 -0.203125 -0.578125l0 -10.28125q0 -0.40625 0.203125 -0.578125q0.203125 -0.171875 0.515625 -0.171875l5.875 0q0.09375 0 0.15625 0.046875q0.0625 0.03125 0.109375 0.15625q0.046875 0.109375 0.0625 0.296875q0.015625 0.171875 0.015625 0.4375q0 0.265625 -0.015625 0.4375q-0.015625 0.171875 -0.0625 0.28125q-0.046875 0.109375 -0.109375 0.171875q-0.0625 0.046875 -0.15625 0.046875l-4.203125 0l0 2.875l3.5625 0q0.078125 0 0.140625 0.046875q0.078125 0.046875 0.125 0.15625q0.046875 0.109375 0.0625 0.28125q0.03125 0.171875 0.03125 0.4375q0 0.265625 -0.03125 0.4375q-0.015625 0.171875 -0.0625 0.28125q-0.046875 0.09375 -0.125 0.140625q-0.0625 0.046875 -0.140625 0.046875l-3.5625 0l0 3.328125l4.25 0q0.078125 0 0.140625 0.046875q0.078125 0.046875 0.109375 0.15625q0.046875 0.109375 0.0625 0.296875q0.03125 0.171875 0.03125 0.4375z" fill-rule="nonzero"/></g></svg>